<?xml version="1.0" encoding="UTF-8" standalone="no"?><!DOCTYPE svg PUBLIC "-//W3C//DTD SVG 1.1//EN" "http://www.w3.org/Graphics/SVG/1.1/DTD/svg11.dtd"><svg width="24px" height="24px" version="1.1" xmlns="http://www.w3.org/2000/svg" xmlns:xlink="http://www.w3.org/1999/xlink" xml:space="preserve" xmlns:serif="http://www.serif.com/" style="fill-rule:evenodd;clip-rule:evenodd;stroke-linejoin:round;stroke-miterlimit:2;"><path d="M8.25,12C8.25,9.929 9.929,8.25 12,8.25C14.071,8.25 15.75,9.929 15.75,12C15.75,14.071 14.071,15.75 12,15.75C9.929,15.75 8.25,14.071 8.25,12ZM12,9.75C10.757,9.75 9.75,10.757 9.75,12C9.75,13.243 10.757,14.25 12,14.25C13.243,14.25 14.25,13.243 14.25,12C14.25,10.757 13.243,9.75 12,9.75Z" style="fill:rgb(219,219,219);"/><path d="M4.323,10.646C3.904,11.25 3.75,11.723 3.75,12C3.75,12.277 3.904,12.75 4.323,13.354C4.729,13.937 5.331,14.57 6.093,15.155C7.62,16.327 9.713,17.25 12,17.25C14.287,17.25 16.38,16.327 17.907,15.155C18.669,14.57 19.271,13.937 19.677,13.354C20.096,12.75 20.25,12.277 20.25,12C20.25,11.723 20.096,11.25 19.677,10.646C19.271,10.063 18.669,9.43 17.907,8.845C16.38,7.673 14.287,6.75 12,6.75C9.713,6.75 7.62,7.673 6.093,8.845C5.331,9.43 4.729,10.063 4.323,10.646ZM5.179,7.655C6.91,6.327 9.316,5.25 12,5.25C14.684,5.25 17.09,6.327 18.821,7.655C19.687,8.32 20.403,9.062 20.909,9.791C21.401,10.5 21.75,11.277 21.75,12C21.75,12.723 21.401,13.5 20.909,14.209C20.403,14.938 19.687,15.68 18.821,16.345C17.09,17.673 14.684,18.75 12,18.75C9.316,18.75 6.91,17.673 5.179,16.345C4.313,15.68 3.597,14.938 3.091,14.209C2.599,13.5 2.25,12.723 2.25,12C2.25,11.277 2.599,10.5 3.091,9.791C3.597,9.062 4.313,8.32 5.179,7.655Z" style="fill:rgb(219,219,219);"/></svg>